<svg xmlns="http://www.w3.org/2000/svg" viewBox="0 0 100 125" fill="none" x="0px" y="0px"><path fill-rule="evenodd" clip-rule="evenodd" d="M33.1645 55.7408L24.9049 35.3093L47.1443 32.1323L33.1645 55.7408ZM47.5562 30.0531L27.0481 32.9829L47.9211 20.9318L47.5562 30.0531ZM65.131 56.2426L51.0167 32.4072L73.5627 35.385L65.131 56.2426ZM65.719 59.3216L52.6142 75.6034L72.9285 63.875L65.719 59.3216ZM73.8459 62.0889V40.0208L66.7393 57.6005L73.8459 62.0889ZM75.8459 35.0735V64.5L49.1418 79.9176L48.9871 80.1099L48.8211 79.8972L22.1523 64.5V33.5L48.9991 18L75.8459 33.5V34.8423L75.9262 34.8748L75.8459 35.0735ZM49.7208 30.2187L71.0394 33.0344L49.9261 20.8446L49.5619 29.9504L49.7208 30.2187ZM32.7678 59.3289L45.5403 75.6936L25.331 64.0258L32.7678 59.3289ZM31.759 57.6005L24.1523 62.4047V38.784L31.759 57.6005ZM63.9953 58.25H64.0142L49.0112 76.8901L34.4628 58.25H63.9953ZM35.1873 56.25L48.9991 32.9252L62.811 56.25H35.1873Z" fill="black"/><text x="0" y="115" fill="#000000" font-size="5px" font-weight="bold" font-family="'Helvetica Neue', Helvetica, Arial-Unicode, Arial, Sans-serif">Created by Julie</text><text x="0" y="120" fill="#000000" font-size="5px" font-weight="bold" font-family="'Helvetica Neue', Helvetica, Arial-Unicode, Arial, Sans-serif">from the Noun Project</text></svg>